<svg width="16" height="16" viewBox="0 0 16 16" fill="none" xmlns="http://www.w3.org/2000/svg">
<path d="M8 1.52344C11.5711 1.52344 14.4766 4.42888 14.4766 8C14.4766 11.5711 11.5711 14.4766 8 14.4766C4.42888 14.4766 1.52344 11.5711 1.52344 8C1.52344 4.42888 4.42888 1.52344 8 1.52344ZM8 4.97656C7.86118 4.97656 7.72805 5.03172 7.62988 5.12988C7.53172 5.22805 7.47656 5.36118 7.47656 5.5V7.47656H5.5C5.36118 7.47656 5.22805 7.53172 5.12988 7.62988C5.03172 7.72805 4.97656 7.86118 4.97656 8C4.97656 8.13882 5.03172 8.27195 5.12988 8.37012C5.22805 8.46828 5.36118 8.52344 5.5 8.52344H7.47656V10.5C7.47656 10.6388 7.53172 10.772 7.62988 10.8701C7.72805 10.9683 7.86118 11.0234 8 11.0234C8.13882 11.0234 8.27195 10.9683 8.37012 10.8701C8.46828 10.772 8.52344 10.6388 8.52344 10.5V8.52344H10.5C10.6388 8.52344 10.772 8.46828 10.8701 8.37012C10.9683 8.27195 11.0234 8.13882 11.0234 8C11.0234 7.86118 10.9683 7.72805 10.8701 7.62988C10.772 7.53172 10.6388 7.47656 10.5 7.47656H8.52344V5.5C8.52344 5.36118 8.46828 5.22805 8.37012 5.12988C8.27195 5.03172 8.13882 4.97656 8 4.97656Z" fill="black" stroke="#4C4850" stroke-width="0.046875"/>
</svg>
